/vscmnt/brussel_pixiu_data/_data_brussel/112/vsc11236/PredSimResults/SUBJ07opt3D/weighted-LRposFixed/trackIG/worker_02.mot
version=1
nRows=4
nColumns=50
inDegrees=yes
endheader
                time	         pelvis_tilt	         pelvis_list	     pelvis_rotation	           pelvis_tx	           pelvis_ty	           pelvis_tz	       hip_flexion_r	     hip_adduction_r	      hip_rotation_r	        knee_angle_r	       ankle_angle_r	         mtp_angle_r	       hip_flexion_l	     hip_adduction_l	      hip_rotation_l	        knee_angle_l	       ankle_angle_l	         mtp_angle_l	    lumbar_extension	      lumbar_bending	     lumbar_rotation	 ercspn_r/activation	 intobl_r/activation	 extobl_r/activation	    abd_r/activation	    add_r/activation	hamstrings_r/activation	bifemsh_r/activation	glut_max_r/activation	iliopsoas_r/activation	rect_fem_r/activation	  vasti_r/activation	gastroc_r/activation	 soleus_r/activation	tib_ant_r/activation	 ercspn_l/activation	 intobl_l/activation	 extobl_l/activation	    abd_l/activation	    add_l/activation	hamstrings_l/activation	bifemsh_l/activation	glut_max_l/activation	iliopsoas_l/activation	rect_fem_l/activation	  vasti_l/activation	gastroc_l/activation	 soleus_l/activation	tib_ant_l/activation	
          1.07006168	         -4.52570653	         -0.44462581	          9.13231556	          1.38037957	          0.84735324	         -0.01300073	         31.28055319	         -2.53559427	         -5.75072403	         -7.60189544	          3.08409643	          0.27609669	        -14.32582230	         -0.37085327	          4.79347160	         -9.28241798	          7.52019294	         29.58182141	        -12.23165102	         -1.07093505	         -1.77226959	          0.13656631	          0.14267522	          0.00999999	          0.01478853	          0.15521720	          0.09138521	          0.13003839	          0.07987694	          0.04833711	          0.00999999	          0.00999999	          0.00999999	          0.00999999	          0.43710963	          0.10904335	          0.00999999	          0.00999999	          0.03082020	          0.04558971	          0.01497403	          0.17028136	          0.01927913	          0.25560188	          0.00999999	          0.00999999	          0.17443282	          0.31588927	          0.01739791	
          1.08076230	         -4.51236464	         -0.38333187	          9.17562066	          1.39678883	          0.84558683	         -0.01255903	         31.26068070	         -2.31568330	         -5.53567682	         -9.37251234	          2.65923691	          0.26977029	        -14.88408431	         -0.45696192	          4.48895132	        -10.26374964	          6.52251663	         31.16210524	        -12.08389820	         -0.75063767	         -1.96661600	          0.11589685	          0.12108117	          0.00999999	          0.01255027	          0.19096471	          0.07755396	          0.11035694	          0.15384694	          0.04102123	          0.00999999	          0.00999999	          0.01388492	          0.01388484	          0.45121276	          0.13007164	          0.00999999	          0.00999999	          0.02615553	          0.08326280	          0.01538443	          0.14450909	          0.01636121	          0.41191834	          0.01000000	          0.00999999	          0.14803222	          0.29542122	          0.01476472	
          1.09146292	         -4.49183951	         -0.31960158	          9.17172661	          1.41338375	          0.84395588	         -0.01210023	         31.08936421	         -2.16128749	         -5.16124964	        -11.10075322	          2.27284755	          0.25243626	        -15.24415650	         -0.51565558	          4.14584947	        -11.64268335	          5.46557375	         32.67997486	        -11.92914134	         -0.42108063	         -2.14923886	          0.12757339	          0.10554223	          0.00999999	          0.07769767	          0.18460435	          0.07085393	          0.11459830	          0.17650084	          0.03481262	          0.00999999	          0.00999999	          0.01178343	          0.01178335	          0.53862316	          0.15622218	          0.00999999	          0.00999999	          0.02219686	          0.07944930	          0.01305601	          0.12721983	          0.01388492	          0.34957406	          0.00999999	          0.00999999	          0.12562738	          0.27270329	          0.01253006	
          1.10216353	         -4.46781036	         -0.24065417	          9.11645181	          1.42997674	          0.84261361	         -0.01155111	         30.81684081	         -2.02107482	         -4.83663626	        -12.63873037	          1.82605316	          0.23470584	        -15.33900939	         -0.53586440	          3.76919358	        -13.49670131	          4.30069119	         34.08615187	        -11.78805545	         -0.10801257	         -2.31543823	          0.15151554	          0.08956830	          0.00999999	          0.13485334	          0.19042503	          0.06195220	          0.09725372	          0.20227648	          0.02954369	          0.00999999	          0.00999999	          0.00999999	          0.00999999	          0.58409229	          0.18344115	          0.00999999	          0.00999999	          0.01883734	          0.07464448	          0.01489656	          0.10796500	          0.01178342	          0.29666564	          0.00999999	          0.00999999	          0.10661353	          0.24077599	          0.01063362	
